<svg width="1080" height="1080" viewBox="0 0 1080 1080" xmlns="http://www.w3.org/2000/svg">
<g clip-path="url(#clip0_1_8)">
<path fill="var(--color-1)"  fill-rule="evenodd" clip-rule="evenodd" d="M270 540C120.883 540 0 419.117 0 270C0 120.883 120.883 0 270 0C419.117 0 540 120.883 540 270C540 120.883 660.883 0 810 0C959.117 0 1080 120.883 1080 270C1080 419.117 959.117 540 810 540C959.117 540 1080 660.883 1080 810C1080 959.117 959.117 1080 810 1080C660.883 1080 540 959.117 540 810C540 959.117 419.117 1080 270 1080C120.883 1080 0 959.117 0 810C0 660.883 120.883 540 270 540Z"/>
</g>
<defs>
<clipPath id="clip0_1_8">
<rect width="1080" height="1080" fill="white"/>
</clipPath>
</defs>
</svg>
