<svg width="1080" height="1080" viewBox="0 0 1080 1080" fill="var(--color-2)" xmlns="http://www.w3.org/2000/svg">
<g clip-path="url(#clip0_1_19)">
<path d="M536.543 5.93557C538.086 3.28618 541.914 3.28617 543.457 5.93557L617.787 133.574C618.997 135.652 621.754 136.2 623.667 134.743L741.184 45.266C743.623 43.4087 747.16 44.8734 747.571 47.9116L767.16 192.516C767.553 195.423 770.837 196.931 773.298 195.337L1073.79 0.67498C1077.41 -1.67043 1081.67 2.58631 1079.33 6.20687L884.663 306.702C883.069 309.163 884.577 312.447 887.484 312.84L1032.09 332.429C1035.13 332.84 1036.59 336.377 1034.73 338.816L945.257 456.333C943.8 458.246 944.348 461.003 946.426 462.213L1074.06 536.543C1076.71 538.086 1076.71 541.914 1074.06 543.457L946.426 617.787C944.348 618.997 943.8 621.754 945.257 623.667L1034.73 741.184C1036.59 743.623 1035.13 747.16 1032.09 747.571L887.491 767.159C884.583 767.552 883.075 770.84 884.673 773.301L1079.8 1073.79C1082.15 1077.41 1077.89 1081.67 1074.27 1079.33L773.296 884.657C770.835 883.065 767.554 884.574 767.16 887.479L747.571 1032.09C747.16 1035.13 743.623 1036.59 741.184 1034.73L623.667 945.257C621.754 943.8 618.997 944.348 617.787 946.426L543.457 1074.06C541.914 1076.71 538.086 1076.71 536.543 1074.06L462.213 946.426C461.003 944.348 458.246 943.8 456.333 945.257L338.816 1034.73C336.377 1036.59 332.84 1035.13 332.429 1032.09L312.84 887.484C312.447 884.577 309.163 883.069 306.702 884.663L6.2069 1079.33C2.58633 1081.67 -1.67045 1077.41 0.674964 1073.79L195.337 773.298C196.931 770.837 195.423 767.553 192.516 767.16L47.9116 747.571C44.8734 747.16 43.4087 743.623 45.266 741.184L134.743 623.667C136.2 621.754 135.652 618.997 133.574 617.787L5.93557 543.457C3.28618 541.914 3.28617 538.086 5.93557 536.543L133.574 462.213C135.652 461.003 136.2 458.246 134.743 456.333L45.266 338.816C43.4087 336.377 44.8734 332.84 47.9116 332.429L192.516 312.84C195.423 312.447 196.931 309.163 195.337 306.702L0.674968 6.20688C-1.67044 2.58632 2.58631 -1.67045 6.20687 0.674962L306.702 195.337C309.163 196.931 312.447 195.423 312.84 192.516L332.429 47.9116C332.84 44.8734 336.377 43.4087 338.816 45.266L456.333 134.743C458.246 136.2 461.003 135.652 462.213 133.574L536.543 5.93557Z"/>
</g>
<defs>
<clipPath id="clip0_1_19">
<rect width="1080" height="1080" fill="white"/>
</clipPath>
</defs>
</svg>
