<svg width="1080" height="1080" viewBox="0 0 1080 1080" fill="var(--color-2)" xmlns="http://www.w3.org/2000/svg">
<g clip-path="url(#clip0_1_35)">
<path d="M536.148 4.74749C537.239 0.853004 542.761 0.853016 543.852 4.7475L577.383 124.429C578.376 127.972 583.224 128.408 584.833 125.098L643.288 4.81159C645.09 1.10414 650.643 2.21565 650.879 6.33096L658.462 138.576C658.681 142.385 663.599 143.755 665.755 140.609L759.214 4.23914C761.662 0.666435 767.25 2.99082 766.443 7.24609L736.084 167.238C735.333 171.196 740.243 173.656 742.963 170.685L895.805 3.81854C898.899 0.440565 904.321 4.07136 902.376 8.21873L807.892 209.686C806.081 213.548 810.764 217.184 814.056 214.472L1073.04 1.17126C1076.76 -1.88782 1081.72 3.01049 1078.71 6.76289L868.271 268.908C865.605 272.229 869.284 276.862 873.122 275.018L1074.3 178.386C1078.43 176.401 1082.11 181.796 1078.75 184.919L912.283 339.909C909.331 342.657 911.842 347.552 915.796 346.759L1075.26 314.76C1079.51 313.908 1081.89 319.475 1078.34 321.959L942.416 417.087C939.281 419.281 940.72 424.201 944.543 424.361L1076.15 429.859C1080.27 430.031 1081.47 435.567 1077.79 437.426L957.771 498.052C954.494 499.708 954.992 504.535 958.539 505.486L1077.3 537.328C1081.2 538.373 1081.27 543.88 1077.4 545.027L958.499 580.242C954.974 581.286 954.606 586.133 957.933 587.697L1077.69 644.006C1081.41 645.757 1080.38 651.314 1076.28 651.615L944.272 661.287C940.482 661.565 939.178 666.473 942.331 668.595L1078.73 760.389C1082.32 762.805 1080.05 768.409 1075.79 767.645L915.671 738.924C911.715 738.214 909.301 743.128 912.279 745.826L1079.16 896.987C1082.56 900.06 1078.96 905.5 1074.81 903.584L873.074 810.648C869.216 808.87 865.613 813.539 868.31 816.821L1079.13 1073.34C1082.18 1077.06 1077.29 1082.01 1073.54 1079.01L813.847 871.048C810.537 868.397 805.92 872.041 807.729 875.876L901.471 1074.62C903.421 1078.75 898.029 1082.4 894.92 1079.04L742.841 915.055C740.116 912.117 735.245 914.564 735.975 918.503L765.092 1075.61C765.878 1079.85 760.32 1082.16 757.868 1078.61L665.647 945.155C663.494 942.039 658.619 943.382 658.365 947.161L649.521 1078.8C649.245 1082.91 643.699 1083.97 641.922 1080.26L584.792 960.959C583.201 957.636 578.344 958.049 577.337 961.593L543.848 1079.46C542.747 1083.33 537.253 1083.33 536.152 1079.46L502.626 961.464C501.624 957.936 496.798 957.504 495.186 960.799L436.707 1080.29C434.898 1083.99 429.358 1082.88 429.121 1078.77L421.536 947.322C421.317 943.524 416.421 942.147 414.255 945.274L320.324 1080.87C317.86 1084.43 312.287 1082.09 313.109 1077.84L343.857 918.811C344.622 914.851 339.711 912.376 336.983 915.346L184.191 1081.73C181.094 1085.11 175.677 1081.47 177.625 1077.33L272.317 875.837C274.119 872.002 269.504 868.365 266.197 871.013L6.46245 1079.01C2.7107 1082.01 -2.17987 1077.06 0.871859 1073.34L211.713 816.792C214.409 813.512 210.811 808.845 206.953 810.618L5.64186 903.135C1.48387 905.046 -2.10543 899.607 1.28659 896.535L167.806 745.746C170.778 743.055 168.383 738.151 164.433 738.841L4.64098 766.745C0.381624 767.489 -1.86495 761.883 1.72905 759.48L137.603 668.6C140.767 666.484 139.466 661.563 135.671 661.286L3.27003 651.615C-0.838001 651.315 -1.86561 645.751 1.86423 644.004L122.088 587.672C125.414 586.114 125.057 581.273 121.539 580.218L2.58463 544.571C-1.28258 543.412 -1.19315 537.905 2.70965 536.872L121.487 505.444C125.032 504.505 125.551 499.688 122.287 498.016L2.19245 436.512C-1.47811 434.633 -0.247389 429.101 3.87394 428.955L135.413 424.288C139.241 424.152 140.707 419.232 137.578 417.023L1.64694 321.048C-1.894 318.548 0.515013 312.988 4.76059 313.862L164.158 346.677C168.113 347.491 170.646 342.599 167.698 339.839L1.23927 184.011C-2.10788 180.877 1.59082 175.492 5.71697 177.491L206.78 274.904C210.618 276.764 214.313 272.127 211.643 268.801L1.29344 6.76295C-1.71878 3.01054 3.24135 -1.88779 6.95565 1.17129L265.78 214.337C269.081 217.056 273.771 213.395 271.935 209.533L176.28 8.23747C174.313 4.09805 179.722 0.439945 182.831 3.80672L336.978 170.707C339.712 173.668 344.614 171.184 343.842 167.228L312.658 7.26604C311.829 3.0131 317.41 0.661724 319.874 4.22561L414.147 140.554C416.323 143.7 421.25 142.291 421.433 138.47L427.763 6.36924C427.961 2.24983 433.508 1.08812 435.342 4.78214L495.147 125.255C496.776 128.537 501.593 128.084 502.581 124.556L536.148 4.74749Z"/>
</g>
<defs>
<clipPath id="clip0_1_35">
<rect width="1080" height="1080" fill="white"/>
</clipPath>
</defs>
</svg>
