<svg width="1080" height="1080" viewBox="0 0 1080 1080" fill="var(--color-1)" xmlns="http://www.w3.org/2000/svg">
<g clip-path="url(#clip0_1_36)">
<path d="M532.042 9.96338C536.046 4.80893 543.834 4.80893 547.838 9.96338L637.308 125.155C729.454 243.791 836.089 350.426 954.725 442.572L1069.92 532.043C1075.07 536.046 1075.07 543.834 1069.92 547.838L954.725 637.308C836.089 729.455 729.454 836.089 637.308 954.726L547.838 1069.92C543.834 1075.07 536.046 1075.07 532.042 1069.92L442.572 954.726C350.425 836.089 243.791 729.455 125.154 637.308L9.96319 547.838C4.80873 543.834 4.80876 536.046 9.9632 532.043L125.154 442.572C243.791 350.426 350.425 243.791 442.572 125.155L532.042 9.96338Z"/>
</g>
<defs>
<clipPath id="clip0_1_36">
<rect width="1080" height="1080" fill="white"/>
</clipPath>
</defs>
</svg>
