<svg width="1080" height="1080" viewBox="0 0 1080 1080" fill="var(--color-3)" xmlns="http://www.w3.org/2000/svg">
<g clip-path="url(#clip0_1_38)">
<path fill-rule="evenodd" clip-rule="evenodd" d="M450 90L360 0H540V180L450 90ZM720 360L630 270L540 180H720V360ZM900 540L810 450L720 360H900V540ZM900 540H1080V720L990 630L900 540ZM990 270L900 180H1080V360L990 270ZM900 180L810 90L720 0H900V180ZM270 990L180 900H360V1080L270 990ZM180 900V720H0L90 810L180 900ZM630 990L540 900H720V1080L630 990ZM360 720L270 630L180 540H360V720ZM180 540L90 450L0 360H180V540ZM360 720L450 810L540 900V720H360ZM900 900L990 990L1080 1080V900H900ZM720 720H900V900L810 810L720 720ZM720 720L630 630L540 540H720V720ZM360 360L270 270L180 180H360V360ZM180 180L90 90L0 0H180V180ZM360 360L450 450L540 540V360H360Z"/>
</g>
<defs>
<clipPath id="clip0_1_38">
<rect width="1080" height="1080" fill="white"/>
</clipPath>
</defs>
</svg>
