<svg width="1080" height="1080" viewBox="0 0 1080 1080" fill="var(--color-1)" xmlns="http://www.w3.org/2000/svg">
<g clip-path="url(#clip0_1_9)">
<path fill-rule="evenodd" clip-rule="evenodd" d="M359.999 179.334C359.64 80.2292 279.189 0 180 0C80.5887 0 0 80.5887 0 180C0 279.189 80.2292 359.64 179.334 359.999L179.333 360.001C80.2285 360.361 0 440.811 0 540C0 639.189 80.2285 719.639 179.333 719.999L179.334 720.001C80.2292 720.36 0 800.811 0 900C0 999.411 80.5887 1080 180 1080C279.189 1080 359.64 999.771 359.999 900.666L360.001 900.667C360.361 999.771 440.811 1080 540 1080C639.189 1080 719.639 999.771 719.999 900.667C720 900.667 720 900.666 720.001 900.666C720.36 999.771 800.811 1080 900 1080C999.411 1080 1080 999.411 1080 900C1080 800.811 999.771 720.36 900.666 720.001C900.666 720 900.667 720 900.667 719.999C999.771 719.639 1080 639.189 1080 540C1080 440.811 999.771 360.361 900.667 360.001L900.666 359.999C999.771 359.64 1080 279.189 1080 180C1080 80.5887 999.411 0 900 0C800.811 0 720.36 80.2292 720.001 179.334L719.999 179.333C719.639 80.2285 639.189 0 540 0C440.811 0 360.361 80.2285 360.001 179.333L359.999 179.334Z"/>
</g>
<defs>
<clipPath id="clip0_1_9">
<rect width="1080" height="1080" fill="white"/>
</clipPath>
</defs>
</svg>
