<svg width="1080" height="1080" viewBox="0 0 1080 1080" fill="var(--color-1)" xmlns="http://www.w3.org/2000/svg">
<g clip-path="url(#clip0_1_10)">
<path fill-rule="evenodd" clip-rule="evenodd" d="M180 892C182.742 892 185.47 891.939 188.183 891.817C188.061 894.53 188 897.258 188 900C188 999.411 268.589 1080 368 1080C448.881 1080 517.303 1026.65 540 953.228C562.697 1026.65 631.119 1080 712 1080C811.411 1080 892 999.411 892 900C892 897.258 891.939 894.53 891.817 891.817C894.53 891.939 897.258 892 900 892C999.411 892 1080 811.411 1080 712C1080 631.119 1026.65 562.697 953.228 540C1026.65 517.303 1080 448.881 1080 368C1080 268.589 999.411 188 900 188C897.258 188 894.53 188.061 891.817 188.183C891.939 185.47 892 182.742 892 180C892 80.5887 811.411 0 712 0C631.119 0 562.697 53.3455 540 126.772C517.303 53.3455 448.881 0 368 0C268.589 0 188 80.5887 188 180C188 182.742 188.061 185.47 188.183 188.183C185.47 188.061 182.742 188 180 188C80.5887 188 0 268.589 0 368C0 448.881 53.3455 517.303 126.772 540C53.3455 562.697 0 631.119 0 712C0 811.411 80.5887 892 180 892Z"/>
</g>
<defs>
<clipPath id="clip0_1_10">
<rect width="1080" height="1080" fill="white"/>
</clipPath>
</defs>
</svg>
