<svg width="1080" height="1080" viewBox="0 0 1080 1080" fill="var(--color-1)" xmlns="http://www.w3.org/2000/svg">
<path fill-rule="evenodd" clip-rule="evenodd" d="M603.919 26.6397C628.01 50.7309 635.588 85.082 626.653 115.628C657.199 106.693 691.55 114.271 715.642 138.363C739.733 162.454 747.311 196.805 738.376 227.351C768.922 218.416 803.273 225.994 827.365 250.085C851.456 274.177 859.034 308.528 850.099 339.074C880.645 330.139 914.996 337.717 939.087 361.808C963.179 385.9 970.757 420.251 961.822 450.797C992.368 441.862 1026.72 449.44 1050.81 473.531C1085.96 508.678 1085.96 565.663 1050.81 600.81C1024.66 626.965 986.407 633.657 954.065 620.885L949.535 625.415C962.178 657.706 955.455 695.829 929.365 721.919C905.273 746.01 870.922 753.588 840.376 744.653C849.311 775.199 841.733 809.55 817.642 833.642C793.55 857.733 759.199 865.311 728.654 856.376C737.588 886.922 730.01 921.273 705.919 945.365C683.921 967.363 653.368 975.592 624.969 970.054C631.516 999.156 623.463 1030.88 600.81 1053.53C565.663 1088.68 508.678 1088.68 473.531 1053.53C449.44 1029.44 441.862 995.089 450.797 964.543C420.251 973.478 385.899 965.9 361.808 941.808C337.717 917.717 330.139 883.366 339.074 852.82C308.528 861.755 274.177 854.177 250.085 830.085C225.994 805.994 218.416 771.643 227.351 741.097C196.805 750.032 162.454 742.454 138.362 718.362C114.271 694.271 106.693 659.92 115.628 629.374C85.0819 638.309 50.7309 630.731 26.6397 606.64C-8.5075 571.492 -8.5075 514.508 26.6397 479.36C52.4681 453.532 90.0895 446.684 122.171 458.816C109.935 426.691 116.758 388.967 142.64 363.085C166.731 338.994 201.082 331.416 231.628 340.351C222.693 309.805 230.271 275.454 254.362 251.362C278.454 227.271 312.805 219.693 343.351 228.628C334.416 198.082 341.994 163.731 366.086 139.64C389.951 115.774 423.884 108.114 454.213 116.658C444.802 85.8565 452.277 51.002 476.64 26.6397C511.787 -8.5075 568.772 -8.5075 603.919 26.6397Z"/>
</svg>
