<svg width="1080" height="1080" viewBox="0 0 1080 1080" fill="var(--color-2)" xmlns="http://www.w3.org/2000/svg">
<g clip-path="url(#clip0_1_14)">
<path fill-rule="evenodd" clip-rule="evenodd" d="M120 60C120 93.1371 93.1371 120 60 120C26.8629 120 0 93.1371 0 60C0 26.8629 26.8629 0 60 0C93.1371 0 120 26.8629 120 60ZM360 60C360 93.1371 333.137 120 300 120C266.863 120 240 93.1371 240 60C240 26.8629 266.863 0 300 0C333.137 0 360 26.8629 360 60ZM540 120C573.137 120 600 93.1371 600 60C600 26.8629 573.137 0 540 0C506.863 0 480 26.8629 480 60C480 93.1371 506.863 120 540 120ZM840 60C840 93.1371 813.137 120 780 120C746.863 120 720 93.1371 720 60C720 26.8629 746.863 0 780 0C813.137 0 840 26.8629 840 60ZM1020 120C1053.14 120 1080 93.1371 1080 60C1080 26.8629 1053.14 0 1020 0C986.863 0 960 26.8629 960 60C960 93.1371 986.863 120 1020 120ZM120 1020C120 1053.14 93.1371 1080 60 1080C26.8629 1080 0 1053.14 0 1020C0 986.863 26.8629 960 60 960C93.1371 960 120 986.863 120 1020ZM300 1080C333.137 1080 360 1053.14 360 1020C360 986.863 333.137 960 300 960C266.863 960 240 986.863 240 1020C240 1053.14 266.863 1080 300 1080ZM600 1020C600 1053.14 573.137 1080 540 1080C506.863 1080 480 1053.14 480 1020C480 986.863 506.863 960 540 960C573.137 960 600 986.863 600 1020ZM780 1080C813.137 1080 840 1053.14 840 1020C840 986.863 813.137 960 780 960C746.863 960 720 986.863 720 1020C720 1053.14 746.863 1080 780 1080ZM1080 1020C1080 1053.14 1053.14 1080 1020 1080C986.863 1080 960 1053.14 960 1020C960 986.863 986.863 960 1020 960C1053.14 960 1080 986.863 1080 1020ZM60 600C93.1371 600 120 573.137 120 540C120 506.863 93.1371 480 60 480C26.8629 480 0 506.863 0 540C0 573.137 26.8629 600 60 600ZM120 300C120 333.137 93.1371 360 60 360C26.8629 360 0 333.137 0 300C0 266.863 26.8629 240 60 240C93.1371 240 120 266.863 120 300ZM60 840C93.1371 840 120 813.137 120 780C120 746.863 93.1371 720 60 720C26.8629 720 0 746.863 0 780C0 813.137 26.8629 840 60 840ZM360 540C360 573.137 333.137 600 300 600C266.863 600 240 573.137 240 540C240 506.863 266.863 480 300 480C333.137 480 360 506.863 360 540ZM300 360C333.137 360 360 333.137 360 300C360 266.863 333.137 240 300 240C266.863 240 240 266.863 240 300C240 333.137 266.863 360 300 360ZM360 780C360 813.137 333.137 840 300 840C266.863 840 240 813.137 240 780C240 746.863 266.863 720 300 720C333.137 720 360 746.863 360 780ZM540 600C573.137 600 600 573.137 600 540C600 506.863 573.137 480 540 480C506.863 480 480 506.863 480 540C480 573.137 506.863 600 540 600ZM600 300C600 333.137 573.137 360 540 360C506.863 360 480 333.137 480 300C480 266.863 506.863 240 540 240C573.137 240 600 266.863 600 300ZM540 840C573.137 840 600 813.137 600 780C600 746.863 573.137 720 540 720C506.863 720 480 746.863 480 780C480 813.137 506.863 840 540 840ZM840 540C840 573.137 813.137 600 780 600C746.863 600 720 573.137 720 540C720 506.863 746.863 480 780 480C813.137 480 840 506.863 840 540ZM780 360C813.137 360 840 333.137 840 300C840 266.863 813.137 240 780 240C746.863 240 720 266.863 720 300C720 333.137 746.863 360 780 360ZM840 780C840 813.137 813.137 840 780 840C746.863 840 720 813.137 720 780C720 746.863 746.863 720 780 720C813.137 720 840 746.863 840 780ZM1020 600C1053.14 600 1080 573.137 1080 540C1080 506.863 1053.14 480 1020 480C986.863 480 960 506.863 960 540C960 573.137 986.863 600 1020 600ZM1080 300C1080 333.137 1053.14 360 1020 360C986.863 360 960 333.137 960 300C960 266.863 986.863 240 1020 240C1053.14 240 1080 266.863 1080 300ZM1020 840C1053.14 840 1080 813.137 1080 780C1080 746.863 1053.14 720 1020 720C986.863 720 960 746.863 960 780C960 813.137 986.863 840 1020 840Z"/>
</g>
<defs>
<clipPath id="clip0_1_14">
<rect width="1080" height="1080" fill="white"/>
</clipPath>
</defs>
</svg>
