<svg width="1080" height="1080" viewBox="0 0 1080 1080" fill="var(--color-2)" xmlns="http://www.w3.org/2000/svg">
<g clip-path="url(#clip0_1_15)">
<path fill-rule="evenodd" clip-rule="evenodd" d="M457.733 736.247C425.602 928.297 414.056 1065.43 432.368 1069.16C450.679 1072.89 493.635 942.139 539.098 752.8C582.907 942.528 624.72 1073.64 643.063 1070.08C661.407 1066.51 651.058 929.281 620.604 736.958C733.683 895.479 822.489 1000.61 838.072 990.299C853.655 979.985 791.577 857.158 689.841 691.129C854.977 794.309 977.257 857.457 987.707 841.964C998.156 826.472 893.801 736.752 736.274 622.294C928.324 654.425 1065.46 665.971 1069.19 647.659C1072.91 629.347 942.164 586.392 752.825 540.929C942.554 497.12 1073.67 455.307 1070.11 436.963C1066.54 418.62 929.307 428.968 736.984 459.423C895.504 346.344 1000.64 257.538 990.325 241.955C980.011 226.372 857.184 288.45 691.155 390.185C794.335 225.05 857.483 102.77 841.99 92.32C826.498 81.8704 736.778 186.226 622.319 343.754C654.451 151.704 665.997 14.5669 647.685 10.8413C629.373 7.11571 586.417 137.862 540.955 327.2C497.146 137.472 455.333 6.35582 436.989 9.92147C418.646 13.4871 428.995 150.72 459.449 343.044C346.37 184.523 257.563 79.3883 241.98 89.7023C226.397 100.016 288.475 222.842 390.21 388.871C225.075 285.691 102.796 222.544 92.3461 238.036C81.8965 253.528 186.253 343.249 343.781 457.708C151.73 425.576 14.5925 414.03 10.8669 432.342C7.14126 450.654 137.887 493.609 327.225 539.072C137.498 582.881 6.38208 624.693 9.94773 643.037C13.5134 661.381 150.746 651.032 343.07 620.577C184.549 733.657 79.4138 822.464 89.7279 838.047C100.042 853.629 222.868 791.552 388.897 689.817C285.717 854.952 222.57 977.231 238.062 987.681C253.554 998.13 343.275 893.775 457.733 736.247Z"/>
</g>
<defs>
<clipPath id="clip0_1_15">
<rect width="1080" height="1080" fill="white"/>
</clipPath>
</defs>
</svg>
