<svg width="1080" height="1080" viewBox="0 0 1080 1080" fill="var(--color-1)" xmlns="http://www.w3.org/2000/svg">
<g clip-path="url(#clip0_1_16)">
<path d="M0 0L72.5961 66.4811C141.636 129.705 253.273 92.1086 270 0L340.137 65.0728C409.242 129.187 521.891 92.5103 540 0C559.733 92.964 673.567 128.55 742.735 63.3781L810 0C822.416 90.7618 930.878 131.178 999.66 70.6727L1080 0L1011.7 75.8655C949.644 144.806 988.445 255.101 1080 270L1012.83 343.823C950.045 412.828 988.096 523.96 1080 540C987.824 556.957 950.379 668.762 1013.75 737.813L1080 810C988.729 823.992 949.335 933.619 1010.82 1002.5L1080 1080L997.83 1008.48C929.137 948.693 821.532 989.665 810 1080L738.032 1013.96C668.986 950.61 557.204 987.884 540 1080C523.716 988.156 412.607 950.274 343.608 1013.04L270 1080C272.602 995.321 175.722 945.587 108.431 997.059L0 1080L69.2078 1002.1C130.369 933.258 91.0137 824.019 0 810L66.2867 737.43C129.33 668.412 91.9202 556.99 0 540C91.647 523.929 129.662 413.182 67.2059 344.213L0 270C91.2983 255.072 130.062 145.164 68.3293 76.2633L0 0Z"/>
</g>
<defs>
<clipPath id="clip0_1_16">
<rect width="1080" height="1080" fill="white"/>
</clipPath>
</defs>
</svg>
